# xmcd
#
# Track frame offsets: 
#        150
#        17837
#        38222
#        55370
#        84515
#        105337
#        120887
#        138427
#        161647
#
# Disc length: 2473 seconds
#
# Revision: 4
# Processed by: cddbd v1.5.2PL0 Copyright (c) Steve Scherf et al.
# Submitted via: ExactAudioCopy v0.99pb5
#
DISCID=6909a709
DTITLE=ROD STEWART - A NIGHT ON THE TOWN (REMASTERED)
DYEAR=1976
DGENRE=Rock
TTITLE0=Tonight's The Night (Gonna Be Alright)
TTITLE1=The First Cut Is The Deepest
TTITLE2=Fool For You
TTITLE3=The Killing Of Georgie
TTITLE4=The Balltrap
TTITLE5=Pretty Flamingo
TTITLE6=Big Bayou
TTITLE7=The Wild Side Of Life
TTITLE8=Trade Winds
EXTD=YEAR: 1976
EXTT0=
EXTT1=
EXTT2=
EXTT3=
EXTT4=
EXTT5=
EXTT6=
EXTT7=
EXTT8=
PLAYORDER=
